<svg width="3052" height="910" viewBox="0 0 3052 910" fill="none" xmlns="http://www.w3.org/2000/svg">
<path d="M373.76 194.172L439.68 255.709L501.217 189.788C517.537 172.305 540.134 162.021 564.037 161.199C587.94 160.377 611.19 169.084 628.673 185.404L826.435 370.013C843.918 386.334 854.202 408.931 855.024 432.834C855.846 456.737 847.14 479.987 830.819 497.47L646.21 695.232C629.889 712.715 607.292 722.999 583.389 723.821C559.486 724.643 536.236 715.936 518.753 699.616L452.832 638.079L391.296 704C374.975 721.483 352.378 731.767 328.475 732.589C304.573 733.411 281.322 724.704 263.839 708.384L66.0776 523.775C48.5944 507.454 38.3105 484.857 37.4883 460.954C36.6662 437.051 45.373 413.801 61.6935 396.318L246.303 198.556C262.623 181.073 285.22 170.789 309.123 169.967C333.026 169.145 356.276 177.852 373.76 194.172ZM593.473 646.003L778.083 448.241C781.347 444.745 783.088 440.094 782.924 435.314C782.759 430.533 780.702 426.014 777.206 422.75L579.444 238.141C575.948 234.876 571.298 233.135 566.517 233.299C561.736 233.464 557.217 235.521 553.953 239.017L369.344 436.779C366.08 440.275 364.338 444.926 364.503 449.706C364.667 454.487 366.724 459.006 370.221 462.27L567.982 646.879C571.479 650.144 576.129 651.885 580.909 651.72C585.69 651.556 590.209 649.499 593.473 646.003ZM114.43 445.547C111.166 449.044 109.424 453.694 109.589 458.474C109.753 463.255 111.81 467.774 115.307 471.038L313.068 655.648C316.565 658.912 321.215 660.653 325.995 660.489C330.776 660.324 335.295 658.267 338.56 654.771L400.096 588.85L320.991 515.007C303.508 498.686 293.224 476.089 292.402 452.186C291.58 428.283 300.287 405.033 316.607 387.55L390.451 308.445L324.531 246.909C321.034 243.645 316.384 241.903 311.603 242.068C306.823 242.232 302.303 244.289 299.039 247.785L114.43 445.547Z" fill="black"/>
<path d="M964.785 302.381L1123.73 692.631H1229.23L1388.85 302.381H1267.79L1176.48 544.512L1085.85 302.381H964.785ZM1458.73 226.631C1458.73 258.419 1484.44 286.826 1520.28 286.826C1555.45 286.826 1582.51 258.419 1582.51 226.631C1582.51 195.519 1555.45 165.084 1520.28 165.084C1484.44 165.084 1458.73 195.519 1458.73 226.631ZM1465.5 301.705V693.307H1575.07V301.705H1465.5ZM1652.39 600.648V692.631H1987.85V586.445H1818.09L1987.18 390.306V301.705H1658.48V407.891H1821.47L1652.39 600.648ZM2057.74 600.648V692.631H2393.2V586.445H2223.44L2392.53 390.306V301.705H2063.82V407.891H2226.82L2057.74 600.648ZM2463.09 693.984H2572.65L2571.3 165.084H2463.76V171.847L2463.09 693.984ZM2642.54 712.245C2642.54 817.754 2732.49 909.06 2846.79 909.06C2963.8 909.06 3051.72 819.783 3051.72 712.245V301.029H2942.16V497.844C2942.16 547.217 2899.55 589.827 2846.79 589.827C2794.71 589.827 2762.25 551.952 2752.78 504.608L2752.1 301.029H2642.54V501.902C2642.54 604.706 2738.58 692.631 2846.79 692.631C2881.29 692.631 2913.75 685.191 2942.83 670.312L2942.16 712.245C2940.8 764.323 2903.6 806.256 2846.79 806.256C2793.36 806.256 2752.1 761.618 2752.1 712.245V706.158H2642.54V712.245Z" fill="black"/>
</svg>
